<svg width="19" height="78" viewBox="0 0 19 78" fill="none" xmlns="http://www.w3.org/2000/svg">
<path d="M13.239 11.3041L14.9755 0.360129L3.90412 3.63987L11.3214 11.8722L13.239 11.3041ZM18.0008 78C18.5531 77.9996 19.0004 77.5515 19 76.9992L18.993 67.9992C18.9925 67.4469 18.5445 66.9996 17.9922 67C17.4399 67.0004 16.9925 67.4485 16.993 68.0008L16.9992 76.0008L8.99922 76.007C8.44694 76.0075 7.99957 76.4555 8 77.0078C8.00043 77.5601 8.4485 78.0075 9.00078 78.007L18.0008 78ZM11.0168 10.8333C12.8083 19.2397 11.7188 25.0822 9.70856 29.7283C8.69548 32.0697 7.43871 34.13 6.15366 36.0942C4.8842 38.0347 3.54837 39.9359 2.47217 41.849C1.3846 43.7822 0.514387 45.8046 0.16535 48.0686C-0.185196 50.3424 -0.00164175 52.8044 0.93999 55.6081C2.80747 61.1686 7.66628 68.0955 17.2934 77.7077L18.7066 76.2923C9.12731 66.7281 4.54932 60.073 2.83592 54.9714C1.98712 52.444 1.84422 50.3049 2.142 48.3733C2.44129 46.432 3.19418 44.6447 4.21528 42.8296C5.24775 40.9943 6.50617 39.2086 7.82731 37.1892C9.13287 35.1936 10.4631 33.021 11.5441 30.5225C13.7222 25.4885 14.8495 19.2222 12.9729 10.4164L11.0168 10.8333Z" fill="black" fill-opacity="0.63"/>
</svg>
