<svg width="13" height="48" viewBox="0 0 13 48" fill="none" xmlns="http://www.w3.org/2000/svg">
<path d="M9.68056 11.5214L12.0912 0.705931L0.838 3.29407L7.73144 11.9697L9.68056 11.5214ZM11.5021 47C12.0544 46.9988 12.5012 46.5502 12.5 45.9979L12.4809 36.9979C12.4798 36.4456 12.0311 35.9989 11.4788 36C10.9265 36.0012 10.4798 36.4499 10.4809 37.0021L10.4979 45.0021L2.4979 45.0191C1.94562 45.0202 1.49885 45.4689 1.50002 46.0212C1.50119 46.5735 1.94985 47.0202 2.50214 47.0191L11.5021 47ZM7.48349 10.8274C7.69757 14.6295 6.74438 17.3462 5.49173 19.6339C4.85568 20.7955 4.14506 21.8425 3.44009 22.899C2.74595 23.9393 2.05062 24.9982 1.5167 26.113C0.41155 28.4205 0.0102007 30.9486 1.32492 34.2646C2.60374 37.4901 5.49332 41.4299 10.7944 46.7086L12.2056 45.2914C6.95688 40.0648 4.30763 36.3612 3.18413 33.5275C2.09654 30.7844 2.42938 28.8375 3.32049 26.9769C3.7847 26.0077 4.40301 25.0592 5.10372 24.0091C5.79361 22.9752 6.55905 21.8489 7.24596 20.5944C8.63923 18.05 9.71956 14.9639 9.48032 10.715L7.48349 10.8274Z" fill="black" fill-opacity="0.63"/>
</svg>
